<mxfile host="app.diagrams.net" agent="Mozilla/5.0 (Windows NT 10.0; Win64; x64) AppleWebKit/537.36 (KHTML, like Gecko) Chrome/132.0.0.0 Safari/537.36 Edg/132.0.0.0" version="26.0.11">
  <diagram name="第 1 页" id="BvCTxVHMavC_BpYrgi1y">
    <mxGraphModel dx="638" dy="402" grid="1" gridSize="10" guides="1" tooltips="1" connect="1" arrows="1" fold="1" page="1" pageScale="1" pageWidth="827" pageHeight="1169" math="0" shadow="0">
      <root>
        <mxCell id="0" />
        <mxCell id="1" parent="0" />
        <mxCell id="rQPNkpV0lBim9gktp3ao-2" value="&lt;font style=&quot;font-size: 14px;&quot;&gt;前端&lt;/font&gt;" style="rounded=0;whiteSpace=wrap;html=1;" vertex="1" parent="1">
          <mxGeometry x="120" y="140" width="70" height="30" as="geometry" />
        </mxCell>
        <mxCell id="rQPNkpV0lBim9gktp3ao-3" value="&lt;span style=&quot;font-size: 14px;&quot;&gt;服务&lt;/span&gt;&lt;span style=&quot;color: rgba(0, 0, 0, 0); font-family: monospace; font-size: 0px; text-align: start; text-wrap-mode: nowrap;&quot;&gt;%3CmxGraphModel%3E%3Croot%3E%3CmxCell%20id%3D%220%22%2F%3E%3CmxCell%20id%3D%221%22%20parent%3D%220%22%2F%3E%3CmxCell%20id%3D%222%22%20value%3D%22%26lt%3Bfont%20style%3D%26quot%3Bfont-size%3A%2014px%3B%26quot%3B%26gt%3B%E5%89%8D%E7%AB%AF%26lt%3B%2Ffont%26gt%3B%22%20style%3D%22rounded%3D0%3BwhiteSpace%3Dwrap%3Bhtml%3D1%3B%22%20vertex%3D%221%22%20parent%3D%221%22%3E%3CmxGeometry%20x%3D%22120%22%20y%3D%22140%22%20width%3D%2270%22%20height%3D%2230%22%20as%3D%22geometry%22%2F%3E%3C%2FmxCell%3E%3C%2Froot%3E%3C%2FmxGraphModel%3E&lt;/span&gt;&lt;span style=&quot;font-size: 14px;&quot;&gt;系统&lt;/span&gt;" style="rounded=0;whiteSpace=wrap;html=1;" vertex="1" parent="1">
          <mxGeometry x="300" y="140" width="70" height="30" as="geometry" />
        </mxCell>
        <mxCell id="rQPNkpV0lBim9gktp3ao-4" value="&lt;font style=&quot;font-size: 14px;&quot;&gt;Minio服务&lt;/font&gt;" style="rounded=0;whiteSpace=wrap;html=1;" vertex="1" parent="1">
          <mxGeometry x="480" y="140" width="70" height="30" as="geometry" />
        </mxCell>
        <mxCell id="rQPNkpV0lBim9gktp3ao-15" style="edgeStyle=orthogonalEdgeStyle;rounded=0;orthogonalLoop=1;jettySize=auto;html=1;exitX=1;exitY=0.25;exitDx=0;exitDy=0;entryX=0;entryY=0.25;entryDx=0;entryDy=0;" edge="1" parent="1">
          <mxGeometry relative="1" as="geometry">
            <mxPoint x="165" y="225.5000000000001" as="sourcePoint" />
            <mxPoint x="325" y="225.5000000000001" as="targetPoint" />
          </mxGeometry>
        </mxCell>
        <mxCell id="rQPNkpV0lBim9gktp3ao-16" value="1. 申请上传文件" style="edgeLabel;html=1;align=center;verticalAlign=middle;resizable=0;points=[];" vertex="1" connectable="0" parent="rQPNkpV0lBim9gktp3ao-15">
          <mxGeometry x="-0.2875" y="2" relative="1" as="geometry">
            <mxPoint x="18" y="-3" as="offset" />
          </mxGeometry>
        </mxCell>
        <mxCell id="rQPNkpV0lBim9gktp3ao-28" style="edgeStyle=orthogonalEdgeStyle;rounded=0;orthogonalLoop=1;jettySize=auto;html=1;exitX=1;exitY=0.75;exitDx=0;exitDy=0;entryX=0;entryY=0.75;entryDx=0;entryDy=0;" edge="1" parent="1">
          <mxGeometry relative="1" as="geometry">
            <mxPoint x="165" y="349.9999999999999" as="sourcePoint" />
            <mxPoint x="325" y="350" as="targetPoint" />
          </mxGeometry>
        </mxCell>
        <mxCell id="rQPNkpV0lBim9gktp3ao-29" value="6.根据业务类型保存URL&lt;div&gt;到对应的系统&lt;/div&gt;" style="edgeLabel;html=1;align=center;verticalAlign=middle;resizable=0;points=[];" vertex="1" connectable="0" parent="rQPNkpV0lBim9gktp3ao-28">
          <mxGeometry x="0.2854" relative="1" as="geometry">
            <mxPoint x="-17" y="10" as="offset" />
          </mxGeometry>
        </mxCell>
        <mxCell id="rQPNkpV0lBim9gktp3ao-32" style="edgeStyle=orthogonalEdgeStyle;rounded=0;orthogonalLoop=1;jettySize=auto;html=1;exitX=1;exitY=0.75;exitDx=0;exitDy=0;entryX=0;entryY=0.75;entryDx=0;entryDy=0;startArrow=classic;startFill=1;" edge="1" parent="1">
          <mxGeometry relative="1" as="geometry">
            <mxPoint x="165" y="429.4999999999999" as="sourcePoint" />
            <mxPoint x="505" y="429.4999999999999" as="targetPoint" />
          </mxGeometry>
        </mxCell>
        <mxCell id="rQPNkpV0lBim9gktp3ao-34" value="8. 下载文件" style="edgeLabel;html=1;align=center;verticalAlign=middle;resizable=0;points=[];" vertex="1" connectable="0" parent="rQPNkpV0lBim9gktp3ao-32">
          <mxGeometry x="-0.1843" y="2" relative="1" as="geometry">
            <mxPoint x="27" y="3" as="offset" />
          </mxGeometry>
        </mxCell>
        <mxCell id="rQPNkpV0lBim9gktp3ao-5" value="" style="rounded=1;whiteSpace=wrap;html=1;" vertex="1" parent="1">
          <mxGeometry x="145" y="190" width="20" height="270" as="geometry" />
        </mxCell>
        <mxCell id="rQPNkpV0lBim9gktp3ao-17" style="edgeStyle=orthogonalEdgeStyle;rounded=0;orthogonalLoop=1;jettySize=auto;html=1;exitX=1;exitY=0.25;exitDx=0;exitDy=0;entryX=0;entryY=0.25;entryDx=0;entryDy=0;" edge="1" parent="1">
          <mxGeometry relative="1" as="geometry">
            <mxPoint x="345" y="243.5000000000001" as="sourcePoint" />
            <mxPoint x="505" y="243.5000000000001" as="targetPoint" />
          </mxGeometry>
        </mxCell>
        <mxCell id="rQPNkpV0lBim9gktp3ao-19" value="2. 申请临时上传URL" style="edgeLabel;html=1;align=center;verticalAlign=middle;resizable=0;points=[];" vertex="1" connectable="0" parent="rQPNkpV0lBim9gktp3ao-17">
          <mxGeometry x="-0.3604" y="-4" relative="1" as="geometry">
            <mxPoint x="24" y="-7" as="offset" />
          </mxGeometry>
        </mxCell>
        <mxCell id="rQPNkpV0lBim9gktp3ao-23" style="edgeStyle=orthogonalEdgeStyle;rounded=0;orthogonalLoop=1;jettySize=auto;html=1;exitX=0;exitY=0.5;exitDx=0;exitDy=0;" edge="1" parent="1">
          <mxGeometry relative="1" as="geometry">
            <mxPoint x="325" y="293" as="sourcePoint" />
            <mxPoint x="165" y="293" as="targetPoint" />
          </mxGeometry>
        </mxCell>
        <mxCell id="rQPNkpV0lBim9gktp3ao-24" value="4. 返回临时上传URL" style="edgeLabel;html=1;align=center;verticalAlign=middle;resizable=0;points=[];" vertex="1" connectable="0" parent="rQPNkpV0lBim9gktp3ao-23">
          <mxGeometry x="-0.275" y="-1" relative="1" as="geometry">
            <mxPoint x="-25" y="-2" as="offset" />
          </mxGeometry>
        </mxCell>
        <mxCell id="rQPNkpV0lBim9gktp3ao-6" value="" style="rounded=1;whiteSpace=wrap;html=1;" vertex="1" parent="1">
          <mxGeometry x="325" y="190" width="20" height="120" as="geometry" />
        </mxCell>
        <mxCell id="rQPNkpV0lBim9gktp3ao-20" style="edgeStyle=orthogonalEdgeStyle;rounded=0;orthogonalLoop=1;jettySize=auto;html=1;exitX=0;exitY=0.25;exitDx=0;exitDy=0;entryX=1;entryY=0.25;entryDx=0;entryDy=0;" edge="1" parent="1">
          <mxGeometry relative="1" as="geometry">
            <mxPoint x="505" y="269.5000000000001" as="sourcePoint" />
            <mxPoint x="345" y="269.5000000000001" as="targetPoint" />
          </mxGeometry>
        </mxCell>
        <mxCell id="rQPNkpV0lBim9gktp3ao-22" value="3. 返回临时上传URL" style="edgeLabel;html=1;align=center;verticalAlign=middle;resizable=0;points=[];" vertex="1" connectable="0" parent="rQPNkpV0lBim9gktp3ao-20">
          <mxGeometry x="0.2562" y="3" relative="1" as="geometry">
            <mxPoint x="16" y="-8" as="offset" />
          </mxGeometry>
        </mxCell>
        <mxCell id="rQPNkpV0lBim9gktp3ao-7" value="" style="rounded=1;whiteSpace=wrap;html=1;" vertex="1" parent="1">
          <mxGeometry x="505" y="190" width="20" height="270" as="geometry" />
        </mxCell>
        <mxCell id="rQPNkpV0lBim9gktp3ao-8" value="" style="endArrow=none;dashed=1;html=1;dashPattern=1 3;strokeWidth=2;rounded=0;exitX=0.5;exitY=0;exitDx=0;exitDy=0;entryX=0.5;entryY=1;entryDx=0;entryDy=0;" edge="1" parent="1" source="rQPNkpV0lBim9gktp3ao-5" target="rQPNkpV0lBim9gktp3ao-2">
          <mxGeometry width="50" height="50" relative="1" as="geometry">
            <mxPoint x="110" y="220" as="sourcePoint" />
            <mxPoint x="160" y="170" as="targetPoint" />
          </mxGeometry>
        </mxCell>
        <mxCell id="rQPNkpV0lBim9gktp3ao-9" value="" style="endArrow=none;dashed=1;html=1;dashPattern=1 3;strokeWidth=2;rounded=0;exitX=0.5;exitY=0;exitDx=0;exitDy=0;entryX=0.5;entryY=1;entryDx=0;entryDy=0;" edge="1" parent="1">
          <mxGeometry width="50" height="50" relative="1" as="geometry">
            <mxPoint x="334.83000000000004" y="190" as="sourcePoint" />
            <mxPoint x="334.83000000000004" y="170" as="targetPoint" />
          </mxGeometry>
        </mxCell>
        <mxCell id="rQPNkpV0lBim9gktp3ao-10" value="" style="endArrow=none;dashed=1;html=1;dashPattern=1 3;strokeWidth=2;rounded=0;exitX=0.5;exitY=0;exitDx=0;exitDy=0;entryX=0.5;entryY=1;entryDx=0;entryDy=0;" edge="1" parent="1">
          <mxGeometry width="50" height="50" relative="1" as="geometry">
            <mxPoint x="514.8299999999999" y="190" as="sourcePoint" />
            <mxPoint x="514.8299999999999" y="170" as="targetPoint" />
          </mxGeometry>
        </mxCell>
        <mxCell id="rQPNkpV0lBim9gktp3ao-25" style="edgeStyle=orthogonalEdgeStyle;rounded=0;orthogonalLoop=1;jettySize=auto;html=1;exitX=1;exitY=0.5;exitDx=0;exitDy=0;entryX=0;entryY=0.5;entryDx=0;entryDy=0;" edge="1" parent="1" source="rQPNkpV0lBim9gktp3ao-5" target="rQPNkpV0lBim9gktp3ao-7">
          <mxGeometry relative="1" as="geometry" />
        </mxCell>
        <mxCell id="rQPNkpV0lBim9gktp3ao-27" value="5.. 上传文件" style="edgeLabel;html=1;align=center;verticalAlign=middle;resizable=0;points=[];" vertex="1" connectable="0" parent="rQPNkpV0lBim9gktp3ao-25">
          <mxGeometry x="-0.498" y="2" relative="1" as="geometry">
            <mxPoint x="-10" y="2" as="offset" />
          </mxGeometry>
        </mxCell>
        <mxCell id="rQPNkpV0lBim9gktp3ao-30" style="edgeStyle=orthogonalEdgeStyle;rounded=0;orthogonalLoop=1;jettySize=auto;html=1;exitX=0;exitY=0.75;exitDx=0;exitDy=0;entryX=1;entryY=0.75;entryDx=0;entryDy=0;" edge="1" parent="1" source="rQPNkpV0lBim9gktp3ao-26" target="rQPNkpV0lBim9gktp3ao-5">
          <mxGeometry relative="1" as="geometry" />
        </mxCell>
        <mxCell id="rQPNkpV0lBim9gktp3ao-31" value="7. 获取文件URL" style="edgeLabel;html=1;align=center;verticalAlign=middle;resizable=0;points=[];" vertex="1" connectable="0" parent="rQPNkpV0lBim9gktp3ao-30">
          <mxGeometry x="0.1312" y="1" relative="1" as="geometry">
            <mxPoint x="9" as="offset" />
          </mxGeometry>
        </mxCell>
        <mxCell id="rQPNkpV0lBim9gktp3ao-26" value="" style="rounded=1;whiteSpace=wrap;html=1;" vertex="1" parent="1">
          <mxGeometry x="325" y="340" width="20" height="70" as="geometry" />
        </mxCell>
      </root>
    </mxGraphModel>
  </diagram>
</mxfile>
